<svg width="39" height="28" viewBox="0 0 39 28" fill="none" xmlns="http://www.w3.org/2000/svg">
<g id="&#240;&#159;&#166;&#134; icon &#34;docker&#34;">
<path id="Vector" d="M22.5797 12.5434H25.9348C26.0126 12.5434 26.0873 12.5126 26.1425 12.4577C26.1977 12.4028 26.2289 12.3283 26.2293 12.2505V9.26272C26.2293 9.18461 26.1983 9.1097 26.143 9.05447C26.0878 8.99925 26.0129 8.96822 25.9348 8.96822H22.5797C22.502 8.96822 22.4275 8.99908 22.3726 9.05401C22.3176 9.10894 22.2868 9.18345 22.2868 9.26113V12.2505C22.2868 12.412 22.4182 12.5434 22.5797 12.5434ZM17.9025 3.94589H21.256C21.3341 3.94589 21.409 3.91486 21.4643 3.85963C21.5195 3.8044 21.5505 3.72949 21.5505 3.65139V0.662057C21.5501 0.584225 21.5189 0.509725 21.4637 0.454837C21.4085 0.39995 21.3339 0.36914 21.256 0.369141H17.9025C17.8249 0.369141 17.7503 0.400002 17.6954 0.454934C17.6405 0.509867 17.6096 0.584371 17.6096 0.662057V3.65139C17.6096 3.81289 17.7395 3.94589 17.9025 3.94589ZM17.9025 8.24463H21.256C21.334 8.24422 21.4087 8.21306 21.4638 8.15792C21.519 8.10278 21.5501 8.02811 21.5505 7.95014V4.96239C21.5501 4.88456 21.5189 4.81005 21.4637 4.75517C21.4085 4.70028 21.3339 4.66947 21.256 4.66947H17.9025C17.8249 4.66947 17.7503 4.70033 17.6954 4.75526C17.6405 4.8102 17.6096 4.8847 17.6096 4.96239V7.95014C17.6096 8.11164 17.7395 8.24305 17.9025 8.24463ZM13.2634 8.24463H16.62C16.6976 8.2438 16.7717 8.21241 16.8262 8.15727C16.8808 8.10213 16.9114 8.0277 16.9114 7.95014V4.96239C16.9114 4.8847 16.8805 4.8102 16.8256 4.75526C16.7706 4.70033 16.6961 4.66947 16.6185 4.66947H13.265C13.1873 4.66947 13.1128 4.70033 13.0578 4.75526C13.0029 4.8102 12.972 4.8847 12.972 4.96239V7.95014C12.972 8.11164 13.1035 8.24305 13.265 8.24463M8.57196 8.24463H11.927C12.0049 8.24422 12.0794 8.213 12.1343 8.15782C12.1892 8.10264 12.22 8.02797 12.22 7.95014V4.96239C12.22 4.8847 12.1891 4.8102 12.1342 4.75526C12.0792 4.70033 12.0047 4.66947 11.927 4.66947H8.57196C8.49413 4.66947 8.41946 4.70028 8.36428 4.75517C8.30909 4.81005 8.27788 4.88456 8.27746 4.96239V7.95014C8.27746 8.11164 8.41046 8.24305 8.57196 8.24463ZM17.9025 12.5434H21.256C21.3339 12.5434 21.4085 12.5126 21.4637 12.4577C21.5189 12.4028 21.5501 12.3283 21.5505 12.2505V9.26272C21.5505 9.18461 21.5195 9.1097 21.4643 9.05447C21.409 8.99925 21.3341 8.96822 21.256 8.96822H17.9025C17.8249 8.96822 17.7503 8.99908 17.6954 9.05401C17.6405 9.10894 17.6096 9.18345 17.6096 9.26113V12.2505C17.6096 12.412 17.7395 12.5434 17.9025 12.5434ZM13.2634 12.5434H16.62C16.6975 12.543 16.7715 12.5119 16.8261 12.457C16.8807 12.4021 16.9114 12.3279 16.9114 12.2505V9.26272C16.9116 9.22425 16.9042 9.18612 16.8897 9.1505C16.8752 9.11488 16.8538 9.08248 16.8267 9.05513C16.7996 9.02778 16.7675 9.00603 16.732 8.99112C16.6966 8.97621 16.6585 8.96842 16.62 8.96822H13.2634C13.186 8.96864 13.1119 8.99968 13.0573 9.05457C13.0027 9.10946 12.972 9.18372 12.972 9.26113V12.2505C12.972 12.412 13.1035 12.5434 13.265 12.5434M8.57196 12.5434H11.927C12.0047 12.5434 12.0792 12.5125 12.1342 12.4576C12.1891 12.4027 12.22 12.3282 12.22 12.2505V9.26272C12.2202 9.22425 12.2128 9.18612 12.1983 9.1505C12.1837 9.11488 12.1623 9.08248 12.1353 9.05513C12.1082 9.02778 12.0761 9.00603 12.0406 8.99112C12.0051 8.97621 11.9671 8.96842 11.9286 8.96822H8.57196C8.49386 8.96822 8.41895 8.99925 8.36372 9.05447C8.30849 9.1097 8.27746 9.18461 8.27746 9.26272V12.2505C8.27746 12.412 8.41046 12.5434 8.57196 12.5434ZM3.94863 12.5434H7.3053C7.38271 12.543 7.45681 12.5119 7.5114 12.457C7.56599 12.4021 7.59663 12.3279 7.59663 12.2505V9.26272C7.59684 9.22425 7.58947 9.18612 7.57494 9.1505C7.56041 9.11488 7.53901 9.08248 7.51196 9.05513C7.4849 9.02778 7.45273 9.00603 7.41727 8.99112C7.38181 8.97621 7.34376 8.96842 7.3053 8.96822H3.94863C3.87122 8.96864 3.79712 8.99968 3.74253 9.05457C3.68794 9.10946 3.6573 9.18372 3.6573 9.26113V12.2505C3.6573 12.412 3.78555 12.5434 3.94863 12.5434ZM38.0647 10.6624C37.9618 10.5816 37.0007 9.85488 34.9709 9.85488C34.4357 9.85647 33.9005 9.90238 33.3717 9.99263C32.979 7.30097 30.7544 5.9868 30.6547 5.9298L30.11 5.61472L29.7522 6.13247C29.3025 6.82597 28.9764 7.5923 28.7832 8.39663C28.419 9.93247 28.6407 11.3765 29.4213 12.6099C28.4792 13.1355 26.9671 13.2638 26.6599 13.2749H1.62905C1.31478 13.2753 1.01346 13.4001 0.79094 13.622C0.568422 13.844 0.442807 14.1449 0.441552 14.4592C0.412231 16.6519 0.783543 18.8314 1.53722 20.8907C2.40013 23.1517 3.68263 24.8174 5.35305 25.837C7.22138 26.9818 10.2614 27.6373 13.7051 27.6373C15.2613 27.642 16.8144 27.501 18.3443 27.2161C20.4705 26.8255 22.5164 26.0822 24.3974 25.0169C25.9479 24.1193 27.3434 22.9773 28.5299 21.6349C30.5122 19.3897 31.6934 16.8896 32.5721 14.6682H32.922C35.0944 14.6682 36.4291 13.799 37.1654 13.0706C37.6546 12.6067 38.0362 12.0415 38.2848 11.4145L38.4399 10.9585L38.0647 10.6624Z" fill="#A3B1C2"/>
</g>
</svg>
