<svg width="22" height="11" viewBox="0 0 22 11" fill="none" xmlns="http://www.w3.org/2000/svg">
<g id="Group">
<g id="Group_2">
<path id="Vector" d="M13.8736 1.44599H8.35498V9.01786H13.8736V1.44599Z" fill="#FF5F00"/>
<path id="Vector_2" d="M8.7043 5.23215C8.70342 4.50292 8.91985 3.7831 9.3372 3.12718C9.75454 2.47126 10.3619 1.89644 11.1132 1.44622C10.1828 0.887839 9.06539 0.540593 7.88872 0.444167C6.71206 0.34774 5.5236 0.506021 4.45919 0.900925C3.39478 1.29583 2.49735 1.91142 1.8695 2.67734C1.24164 3.44325 0.908691 4.32858 0.908691 5.23215C0.908691 6.13571 1.24164 7.02105 1.8695 7.78696C2.49735 8.55287 3.39478 9.16847 4.45919 9.56337C5.5236 9.95828 6.71206 10.1166 7.88872 10.0201C9.06539 9.9237 10.1828 9.57646 11.1132 9.01808C10.3619 8.56786 9.75455 7.99303 9.33721 7.33711C8.91986 6.68119 8.70343 5.96137 8.7043 5.23215Z" fill="#EB001B"/>
<path id="Vector_3" d="M21.3184 5.23215C21.3185 6.1357 20.9856 7.02103 20.3577 7.78694C19.7299 8.55286 18.8325 9.16845 17.7681 9.56336C16.7038 9.95827 15.5153 10.1166 14.3387 10.0201C13.162 9.9237 12.0446 9.57646 11.1143 9.01808C11.8649 8.5674 12.4718 7.99248 12.889 7.33667C13.3063 6.68085 13.5231 5.96126 13.5231 5.23215C13.5231 4.50304 13.3063 3.78344 12.889 3.12763C12.4718 2.47181 11.8649 1.89689 11.1143 1.44622C12.0446 0.887837 13.162 0.540591 14.3387 0.444165C15.5153 0.34774 16.7038 0.506028 17.7681 0.900936C18.8325 1.29584 19.7299 1.91144 20.3577 2.67735C20.9856 3.44327 21.3185 4.3286 21.3184 5.23215Z" fill="#F79E1B"/>
<path id="Vector_4" d="M20.714 8.21598V8.06097H20.7959V8.02938H20.5874V8.06097H20.6693V8.21598H20.714ZM21.1188 8.21598V8.02908H21.0549L20.9814 8.15763L20.9079 8.02908H20.8439V8.21598H20.8891V8.075L20.958 8.19655H21.0048L21.0737 8.07469V8.21598H21.1188Z" fill="#F79E1B"/>
</g>
</g>
</svg>
