<svg width="39" height="38" viewBox="0 0 39 38" fill="none" xmlns="http://www.w3.org/2000/svg">
<g id="&#240;&#159;&#166;&#134; icon &#34;slack&#34;">
<path id="Vector" d="M8.79652 24.0145C8.79443 25.0726 8.37354 26.0867 7.62586 26.8353C6.87818 27.5838 5.86453 28.006 4.80652 28.0093C3.74797 28.0068 2.73351 27.5851 1.98514 26.8364C1.23677 26.0877 0.815445 25.0731 0.813354 24.0145C0.816283 22.9567 1.23803 21.943 1.98635 21.1953C2.73467 20.4476 3.74866 20.0266 4.80652 20.0245H8.79652V24.0145ZM10.8089 24.0145C10.8119 22.957 11.2334 21.9435 11.9814 21.1959C12.7294 20.4482 13.7429 20.0271 14.8005 20.0245C15.8581 20.0271 16.8717 20.4482 17.6197 21.1959C18.3676 21.9435 18.7892 22.957 18.7921 24.0145V34.0101C18.7896 35.0681 18.3683 36.0821 17.6203 36.8304C16.8723 37.5787 15.8585 38.0004 14.8005 38.0033C13.7425 38.0004 12.7287 37.5787 11.9807 36.8304C11.2327 36.0821 10.8114 35.0681 10.8089 34.0101V24.0145ZM14.8005 7.98646C13.7431 7.98354 12.7297 7.56228 11.9818 6.81469C11.2339 6.06709 10.8123 5.05392 10.8089 3.99646C10.8114 2.93845 11.2327 1.92447 11.9807 1.1762C12.7287 0.42792 13.7425 0.00622255 14.8005 0.0032959C15.8585 0.00622255 16.8723 0.42792 17.6203 1.1762C18.3683 1.92447 18.7896 2.93845 18.7921 3.99646V7.98646H14.8005ZM14.8005 9.99888C15.8583 10.0018 16.8718 10.4233 17.6198 11.1712C18.3677 11.9192 18.7892 12.9327 18.7921 13.9905C18.7892 15.0482 18.3677 16.0618 17.6198 16.8097C16.8718 17.5576 15.8583 17.9791 14.8005 17.982H4.80652C3.74851 17.9795 2.73453 17.5582 1.98625 16.8103C1.23798 16.0623 0.816281 15.0485 0.813354 13.9905C0.816281 12.9325 1.23798 11.9186 1.98625 11.1707C2.73453 10.4227 3.74851 10.0014 4.80652 9.99888H14.8005ZM30.827 13.9905C30.8299 12.9325 31.2516 11.9186 31.9999 11.1707C32.7482 10.4227 33.7622 10.0014 34.8202 9.99888C35.8782 10.0014 36.8922 10.4227 37.6405 11.1707C38.3887 11.9186 38.8104 12.9325 38.8134 13.9905C38.8104 15.0485 38.3887 16.0623 37.6405 16.8103C36.8922 17.5582 35.8782 17.9795 34.8202 17.982H30.827V13.9905ZM28.8194 13.9905C28.8164 15.0487 28.3945 16.0628 27.6459 16.8108C26.8973 17.5588 25.8829 17.98 24.8246 17.982C23.767 17.9791 22.7536 17.5576 22.0059 16.8096C21.2582 16.0616 20.8371 15.0481 20.8346 13.9905V3.99646C20.8367 2.9386 21.2576 1.92461 22.0054 1.17629C22.7531 0.427973 23.7667 0.00622421 24.8246 0.0032959C25.8832 0.00538659 26.8978 0.426715 27.6465 1.17508C28.3951 1.92345 28.8168 2.93791 28.8194 3.99646V13.9905ZM24.8246 30.017C25.8832 30.0191 26.8978 30.4404 27.6465 31.1887C28.3951 31.9371 28.8168 32.9516 28.8194 34.0101C28.8168 35.0687 28.3951 36.0831 27.6465 36.8315C26.8978 37.5799 25.8832 38.0012 24.8246 38.0033C23.7667 38.0004 22.7531 37.5786 22.0054 36.8303C21.2576 36.082 20.8367 35.068 20.8346 34.0101V30.017H24.8246ZM24.8246 28.0093C23.7665 28.0064 22.7526 27.5844 22.0048 26.8357C21.257 26.0871 20.8363 25.0727 20.8346 24.0145C20.8371 22.9571 21.2583 21.9437 22.006 21.196C22.7537 20.4482 23.7672 20.0271 24.8246 20.0245H34.8202C35.8781 20.0266 36.892 20.4476 37.6404 21.1953C38.3887 21.943 38.8104 22.9567 38.8134 24.0145C38.8113 25.0731 38.3899 26.0877 37.6416 26.8364C36.8932 27.5851 35.8787 28.0068 34.8202 28.0093H24.8246Z" fill="#A3B1C2"/>
</g>
</svg>
