<svg width="39" height="38" viewBox="0 0 39 38" fill="none" xmlns="http://www.w3.org/2000/svg">
<g id="&#240;&#159;&#166;&#134; icon &#34;bitcoin&#34;">
<path id="Vector" d="M38.0572 23.6026C35.5203 33.7852 25.2094 39.9771 15.0285 37.437C4.85223 34.919 -1.34599 24.586 1.19728 14.4193C3.73104 4.22882 14.045 -1.96781 24.2197 0.567535C34.4022 3.10922 40.5973 13.4185 38.0572 23.6058V23.6026ZM28.0013 16.2975C28.3814 13.7795 26.4589 12.4176 23.8206 11.4991L24.6758 8.08964L22.5933 7.56706L21.7619 10.9037C21.2156 10.7659 20.6455 10.6392 20.077 10.5078L20.91 7.13948L18.8196 6.61689L17.9645 10.0454C17.5131 9.93929 17.0697 9.83636 16.6342 9.72867L13.76 9.01605L13.2057 11.2442C13.2057 11.2442 14.7497 11.6005 14.7181 11.6179C15.5653 11.8333 15.7157 12.3875 15.692 12.8309L13.353 22.2059C13.2342 22.4688 12.9729 22.8488 12.3807 22.7031C12.4044 22.7348 10.8604 22.3231 10.8604 22.3231L9.81524 24.7143L12.5232 25.3889L13.996 25.7721L13.1408 29.2402L15.2312 29.7581L16.0863 26.3217C16.6564 26.48 17.2027 26.6225 17.7491 26.754L16.9415 30.1651L19.0318 30.6876L19.8949 27.2196C23.4421 27.8958 26.1184 27.6265 27.2428 24.4102C28.1454 21.8179 27.1953 20.3246 25.3155 19.3491C26.6679 19.0434 27.6909 18.1455 27.976 16.2927H27.9918L28.0013 16.2975ZM23.2347 22.9803C22.5949 25.5774 18.2353 24.168 16.8211 23.8196L17.9613 19.2271C19.3802 19.5913 23.9109 20.2881 23.2347 22.9803ZM23.884 16.2658C23.298 18.6253 19.6684 17.4297 18.4918 17.1368L19.5275 12.9561C20.7057 13.2411 24.4952 13.7859 23.8824 16.2563L23.884 16.2658Z" fill="#A3B1C2"/>
</g>
</svg>
